<svg xmlns="http://www.w3.org/2000/svg" width="693.107" height="732.418" viewBox="0 0 693.107 732.418"><path d="M61,132.223c20.207,16.916,39.734,32.871,49.149,39.555,9.917,7.042,42.056,28.584,73.175,49.047,41.129,27.054,67.774,43.952,79.187,50.229,23.005,12.655,169.363,99.726,197.344,120.214a700.019,700.019,0,0,1,74.961,62.858c20.539,20.029,44.709,50.875,56.208,71.746,13.344,24.221,28.023,53.622,35.669,88.049,7.518,33.823,9.083,45.687,9.364,60.213q-2.628-.128-5.179-.247c-34.6-1.641-55.476-2.628-116.54-18.132-31.68-8.045-66.558-20.479-100.849-35.966-31.408-14.186-60.809-30.3-82.785-45.373-45.619-31.3-106.037-85.4-129.306-115.792l-2.109-2.756c-26.7-34.852-63.258-82.589-85.472-130.964C89.3,271.513,72.8,214.659,68.914,191.331c-2.773-16.652-5.7-37.548-7.926-59.125M.255,0s-.57,30.047,0,74.272,7.374,95.823,12.476,126.44,23.813,92.421,49.327,147.982,66.337,108.291,94.122,144.58,93.552,94.683,142.309,128.141,128.141,70.87,201.843,89.58,95.823,18.141,140.047,20.411c14.747.757,25.514,1.012,33.33,1.012,15.623,0,19.4-1.012,19.4-1.012V680.948c0-24.383-1.7-38.552-10.775-79.375s-26.084-75.411-41.392-103.188S597.287,435.45,574.6,413.338A751.346,751.346,0,0,0,493.529,345.3c-31.748-23.243-180.87-111.693-203.544-124.169s-129.272-83.346-146.851-95.823S52.985,51.037,37.106,36.859.255,0,.255,0Z" transform="translate(-0.002)" fill="#bcd8d2"/></svg>