<svg xmlns="http://www.w3.org/2000/svg" width="817.005" height="864.693" viewBox="0 0 817.005 864.693"><path d="M72.73,157.97c23.76,19.89,46.72,38.65,57.79,46.51,11.66,8.28,49.45,33.61,86.04,57.67,48.36,31.81,79.69,51.68,93.11,59.06,27.05,14.88,199.14,117.26,232.04,141.35,32.85,24.05,62.51,48.92,88.14,73.91,24.15,23.55,52.57,59.82,66.09,84.36,15.69,28.48,32.95,63.05,41.94,103.53,8.84,39.77,10.68,53.72,11.01,70.8q-3.09-.15-6.09-.29c-40.68-1.93-65.23-3.09-137.03-21.32-37.25-9.46-78.26-24.08-118.58-42.29-36.93-16.68-71.5-35.63-97.34-53.35-53.64-36.8-124.68-100.42-152.04-136.15l-2.48-3.24c-31.39-40.98-74.38-97.11-100.5-153.99C106,321.75,86.6,254.9,82.03,227.47c-3.26-19.58-6.7-44.15-9.32-69.52M1.3,2.5s-.67,35.33,0,87.33S9.97,202.5,15.97,238.5s28,108.67,58,174,78,127.33,110.67,170,110,111.33,167.33,150.67S502.64,816.5,589.3,838.5s112.67,21.33,164.67,24c17.34.89,30,1.19,39.19,1.19,18.37,0,22.81-1.19,22.81-1.19V803.17c0-28.67-2-45.33-12.67-93.33s-30.67-88.67-48.67-121.33-51.33-74-78-100-58-52.67-95.33-80-212.67-131.33-239.33-146-152-98-172.67-112.67-106-87.33-124.67-104S1.3,2.5,1.3,2.5Z" transform="translate(0.035 0.003)" fill="none" stroke="#bcd8d2" stroke-miterlimit="10" stroke-width="2"/></svg>